# xmcd
#
# Track frame offsets: 
#        150
#        10902
#        21572
#        35250
#        45270
#        54255
#        64582
#        75565
#        87475
#        97550
#        108802
#        119000
#        132437
#        145177
#        160037
#        178215
#        191495
#        201637
#        214207
#        223212
#        231092
#        240370
#        254680
#        267685
#
# Disc length: 3709 seconds
#
# Revision: 0
# Processed by: cddbd v1.4PL0 Copyright (c) Steve Scherf et al.
# Submitted via: ExactAudioCopy v0.90b3
#
DISCID=590e7b18
DTITLE=Grandpa Jones - Everybody's Grandpa - Disc 04
DYEAR=1900
DGENRE=Country
TTITLE0=Heart Full Of Love (1967)
TTITLE1=Goin' Down To The River (1967)
TTITLE2=Moon Of Arizona (1967)
TTITLE3=Steady Drips Of Water (1967)
TTITLE4=Everything I Had Going For Me Is Gone (1967)
TTITLE5=Don't Look Back (1967)
TTITLE6=Trouble In Mind (Version 1) (1968)
TTITLE7=Trouble In Mind (Version 2) (1969)
TTITLE8=That's All This Old World Needs (1967)
TTITLE9=Bill's Gonna Soon Be Home (1967)
TTITLE10=Mountain Laurel (1968)
TTITLE11=Smoke, Smoke, Smoke (But Not Around Me) (1968)
TTITLE12=I've Learned To Leave That To The Lord (1968)
TTITLE13=Old Troupe Dog (1968)
TTITLE14=Sweet Lips (Battle Of King's Mountain) (1973)
TTITLE15=Plans (1997)
TTITLE16=I'll Just Keep Living Alone (1968)
TTITLE17=King Of The Cannon County Hills (1969)
TTITLE18=Mountain Dew (1969)
TTITLE19=Old Rattler (1969)
TTITLE20=Old Blue (1969)
TTITLE21=Grasshopper McClain (1969)
TTITLE22=Old Bill (1997)
TTITLE23=Goin' Down To The River (Alt) (1997)
EXTD=
EXTT0=
EXTT1=
EXTT2=
EXTT3=
EXTT4=
EXTT5=
EXTT6=
EXTT7=
EXTT8=
EXTT9=
EXTT10=
EXTT11=
EXTT12=
EXTT13=
EXTT14=
EXTT15=
EXTT16=
EXTT17=
EXTT18=
EXTT19=
EXTT20=
EXTT21=
EXTT22=
EXTT23=
PLAYORDER=
